<mxfile host="app.diagrams.net" agent="Mozilla/5.0 (Windows NT 10.0; Win64; x64) AppleWebKit/537.36 (KHTML, like Gecko) Chrome/131.0.0.0 Safari/537.36" version="25.0.3" pages="3">
  <diagram name="Fluxo principal" id="TL47KXlXMOAogJmtHogw">
    <mxGraphModel dx="1235" dy="655" grid="1" gridSize="10" guides="1" tooltips="1" connect="1" arrows="1" fold="1" page="1" pageScale="1" pageWidth="827" pageHeight="1169" math="0" shadow="0">
      <root>
        <mxCell id="0" />
        <mxCell id="1" parent="0" />
        <mxCell id="DjvFnh4AeLUN4n7oHjKb-1" value="" style="whiteSpace=wrap;html=1;aspect=fixed;" vertex="1" parent="1">
          <mxGeometry x="184" y="80" width="460" height="460" as="geometry" />
        </mxCell>
        <mxCell id="DjvFnh4AeLUN4n7oHjKb-2" value="Cliente" style="shape=umlActor;verticalLabelPosition=bottom;verticalAlign=top;html=1;outlineConnect=0;" vertex="1" parent="1">
          <mxGeometry x="90" y="250" width="30" height="60" as="geometry" />
        </mxCell>
        <mxCell id="w4VJccQ-rjaOCXNM9fzO-1" value="Fazer Login" style="ellipse;whiteSpace=wrap;html=1;" vertex="1" parent="1">
          <mxGeometry x="230" y="150" width="110" height="70" as="geometry" />
        </mxCell>
        <mxCell id="w4VJccQ-rjaOCXNM9fzO-2" value="Sistema" style="shape=umlActor;verticalLabelPosition=bottom;verticalAlign=top;html=1;outlineConnect=0;" vertex="1" parent="1">
          <mxGeometry x="700" y="250" width="30" height="60" as="geometry" />
        </mxCell>
        <mxCell id="w4VJccQ-rjaOCXNM9fzO-3" value="" style="endArrow=none;html=1;rounded=0;exitX=0.5;exitY=0.5;exitDx=0;exitDy=0;exitPerimeter=0;entryX=0;entryY=0.5;entryDx=0;entryDy=0;" edge="1" parent="1" source="DjvFnh4AeLUN4n7oHjKb-2" target="w4VJccQ-rjaOCXNM9fzO-1">
          <mxGeometry width="50" height="50" relative="1" as="geometry">
            <mxPoint x="380" y="330" as="sourcePoint" />
            <mxPoint x="430" y="280" as="targetPoint" />
            <Array as="points" />
          </mxGeometry>
        </mxCell>
        <mxCell id="w4VJccQ-rjaOCXNM9fzO-4" value="Filtros personalizados" style="ellipse;whiteSpace=wrap;html=1;" vertex="1" parent="1">
          <mxGeometry x="230" y="245" width="110" height="70" as="geometry" />
        </mxCell>
        <mxCell id="w4VJccQ-rjaOCXNM9fzO-5" value="Notícias" style="ellipse;whiteSpace=wrap;html=1;" vertex="1" parent="1">
          <mxGeometry x="230" y="340" width="110" height="70" as="geometry" />
        </mxCell>
        <mxCell id="w4VJccQ-rjaOCXNM9fzO-6" value="" style="endArrow=none;html=1;rounded=0;exitX=0.5;exitY=0.5;exitDx=0;exitDy=0;exitPerimeter=0;entryX=0;entryY=0.5;entryDx=0;entryDy=0;" edge="1" parent="1" source="DjvFnh4AeLUN4n7oHjKb-2" target="w4VJccQ-rjaOCXNM9fzO-4">
          <mxGeometry width="50" height="50" relative="1" as="geometry">
            <mxPoint x="130" y="290" as="sourcePoint" />
            <mxPoint x="184" y="250" as="targetPoint" />
          </mxGeometry>
        </mxCell>
        <mxCell id="w4VJccQ-rjaOCXNM9fzO-7" value="" style="endArrow=none;html=1;rounded=0;exitX=0.5;exitY=0.5;exitDx=0;exitDy=0;exitPerimeter=0;entryX=0;entryY=0.5;entryDx=0;entryDy=0;" edge="1" parent="1" source="DjvFnh4AeLUN4n7oHjKb-2" target="w4VJccQ-rjaOCXNM9fzO-5">
          <mxGeometry width="50" height="50" relative="1" as="geometry">
            <mxPoint x="134" y="380" as="sourcePoint" />
            <mxPoint x="184" y="330" as="targetPoint" />
          </mxGeometry>
        </mxCell>
        <mxCell id="w4VJccQ-rjaOCXNM9fzO-8" value="" style="endArrow=none;html=1;rounded=0;entryX=0.5;entryY=0.5;entryDx=0;entryDy=0;entryPerimeter=0;exitX=1;exitY=0.5;exitDx=0;exitDy=0;" edge="1" parent="1" source="w4VJccQ-rjaOCXNM9fzO-5" target="w4VJccQ-rjaOCXNM9fzO-2">
          <mxGeometry width="50" height="50" relative="1" as="geometry">
            <mxPoint x="630" y="390" as="sourcePoint" />
            <mxPoint x="680" y="340" as="targetPoint" />
          </mxGeometry>
        </mxCell>
        <mxCell id="w4VJccQ-rjaOCXNM9fzO-9" value="Detalhamento de notícias&amp;nbsp;" style="ellipse;whiteSpace=wrap;html=1;" vertex="1" parent="1">
          <mxGeometry x="414" y="240" width="114" height="70" as="geometry" />
        </mxCell>
        <mxCell id="w4VJccQ-rjaOCXNM9fzO-10" value="" style="endArrow=open;endSize=12;dashed=1;html=1;rounded=0;exitX=1;exitY=0.5;exitDx=0;exitDy=0;entryX=0;entryY=0.5;entryDx=0;entryDy=0;" edge="1" parent="1" source="w4VJccQ-rjaOCXNM9fzO-4" target="w4VJccQ-rjaOCXNM9fzO-9">
          <mxGeometry width="160" relative="1" as="geometry">
            <mxPoint x="290" y="290" as="sourcePoint" />
            <mxPoint x="450" y="290" as="targetPoint" />
          </mxGeometry>
        </mxCell>
        <mxCell id="mhQv_F9WLWIveDNvM7gP-1" value="Favoritar notícias" style="ellipse;whiteSpace=wrap;html=1;" vertex="1" parent="1">
          <mxGeometry x="220" y="450" width="110" height="70" as="geometry" />
        </mxCell>
        <mxCell id="mhQv_F9WLWIveDNvM7gP-2" value="" style="endArrow=classic;html=1;rounded=0;exitX=0.5;exitY=0;exitDx=0;exitDy=0;entryX=0.5;entryY=1;entryDx=0;entryDy=0;" edge="1" parent="1" source="mhQv_F9WLWIveDNvM7gP-1" target="w4VJccQ-rjaOCXNM9fzO-5">
          <mxGeometry width="50" height="50" relative="1" as="geometry">
            <mxPoint x="350" y="310" as="sourcePoint" />
            <mxPoint x="400" y="260" as="targetPoint" />
          </mxGeometry>
        </mxCell>
      </root>
    </mxGraphModel>
  </diagram>
  <diagram id="r0G1Y0qKkHwOIWcoqoSI" name="Fluxo Opcional">
    <mxGraphModel dx="1050" dy="557" grid="1" gridSize="10" guides="1" tooltips="1" connect="1" arrows="1" fold="1" page="1" pageScale="1" pageWidth="827" pageHeight="1169" math="0" shadow="0">
      <root>
        <mxCell id="0" />
        <mxCell id="1" parent="0" />
        <mxCell id="DqcE8ZYbqzWR5y5hjD0n-1" value="" style="whiteSpace=wrap;html=1;aspect=fixed;" vertex="1" parent="1">
          <mxGeometry x="184" y="80" width="460" height="460" as="geometry" />
        </mxCell>
        <mxCell id="DqcE8ZYbqzWR5y5hjD0n-2" value="Fazer Login" style="ellipse;whiteSpace=wrap;html=1;" vertex="1" parent="1">
          <mxGeometry x="230" y="150" width="110" height="70" as="geometry" />
        </mxCell>
        <mxCell id="DqcE8ZYbqzWR5y5hjD0n-3" value="Sistema" style="shape=umlActor;verticalLabelPosition=bottom;verticalAlign=top;html=1;outlineConnect=0;" vertex="1" parent="1">
          <mxGeometry x="700" y="250" width="30" height="60" as="geometry" />
        </mxCell>
        <mxCell id="DqcE8ZYbqzWR5y5hjD0n-4" value="" style="endArrow=none;html=1;rounded=0;exitX=0.5;exitY=0.5;exitDx=0;exitDy=0;exitPerimeter=0;entryX=0;entryY=0.5;entryDx=0;entryDy=0;" edge="1" parent="1" target="DqcE8ZYbqzWR5y5hjD0n-2">
          <mxGeometry width="50" height="50" relative="1" as="geometry">
            <mxPoint x="105" y="280" as="sourcePoint" />
            <mxPoint x="430" y="280" as="targetPoint" />
            <Array as="points" />
          </mxGeometry>
        </mxCell>
        <mxCell id="DqcE8ZYbqzWR5y5hjD0n-5" value="Filtros personalizados" style="ellipse;whiteSpace=wrap;html=1;" vertex="1" parent="1">
          <mxGeometry x="230" y="245" width="110" height="70" as="geometry" />
        </mxCell>
        <mxCell id="DqcE8ZYbqzWR5y5hjD0n-6" value="Notícias" style="ellipse;whiteSpace=wrap;html=1;" vertex="1" parent="1">
          <mxGeometry x="230" y="340" width="110" height="70" as="geometry" />
        </mxCell>
        <mxCell id="DqcE8ZYbqzWR5y5hjD0n-7" value="" style="endArrow=none;html=1;rounded=0;exitX=0.5;exitY=0.5;exitDx=0;exitDy=0;exitPerimeter=0;entryX=0;entryY=0.5;entryDx=0;entryDy=0;" edge="1" parent="1" target="DqcE8ZYbqzWR5y5hjD0n-5">
          <mxGeometry width="50" height="50" relative="1" as="geometry">
            <mxPoint x="105" y="280" as="sourcePoint" />
            <mxPoint x="184" y="250" as="targetPoint" />
          </mxGeometry>
        </mxCell>
        <mxCell id="DqcE8ZYbqzWR5y5hjD0n-8" value="" style="endArrow=none;html=1;rounded=0;exitX=0.5;exitY=0.5;exitDx=0;exitDy=0;exitPerimeter=0;entryX=0;entryY=0.5;entryDx=0;entryDy=0;" edge="1" parent="1" target="DqcE8ZYbqzWR5y5hjD0n-6">
          <mxGeometry width="50" height="50" relative="1" as="geometry">
            <mxPoint x="105" y="280" as="sourcePoint" />
            <mxPoint x="184" y="330" as="targetPoint" />
          </mxGeometry>
        </mxCell>
        <mxCell id="DqcE8ZYbqzWR5y5hjD0n-9" value="" style="endArrow=none;html=1;rounded=0;entryX=0.5;entryY=0.5;entryDx=0;entryDy=0;entryPerimeter=0;exitX=1;exitY=0.5;exitDx=0;exitDy=0;" edge="1" parent="1" source="DqcE8ZYbqzWR5y5hjD0n-6" target="DqcE8ZYbqzWR5y5hjD0n-3">
          <mxGeometry width="50" height="50" relative="1" as="geometry">
            <mxPoint x="630" y="390" as="sourcePoint" />
            <mxPoint x="680" y="340" as="targetPoint" />
          </mxGeometry>
        </mxCell>
        <mxCell id="DqcE8ZYbqzWR5y5hjD0n-10" value="Detalhamento de notícias&amp;nbsp;" style="ellipse;whiteSpace=wrap;html=1;" vertex="1" parent="1">
          <mxGeometry x="414" y="240" width="114" height="70" as="geometry" />
        </mxCell>
        <mxCell id="DqcE8ZYbqzWR5y5hjD0n-11" value="" style="endArrow=open;endSize=12;dashed=1;html=1;rounded=0;exitX=1;exitY=0.5;exitDx=0;exitDy=0;entryX=0;entryY=0.5;entryDx=0;entryDy=0;" edge="1" parent="1" source="DqcE8ZYbqzWR5y5hjD0n-5" target="DqcE8ZYbqzWR5y5hjD0n-10">
          <mxGeometry width="160" relative="1" as="geometry">
            <mxPoint x="290" y="290" as="sourcePoint" />
            <mxPoint x="450" y="290" as="targetPoint" />
          </mxGeometry>
        </mxCell>
        <mxCell id="DqcE8ZYbqzWR5y5hjD0n-12" value="Cliente" style="shape=umlActor;verticalLabelPosition=bottom;verticalAlign=top;html=1;outlineConnect=0;" vertex="1" parent="1">
          <mxGeometry x="60" y="250" width="30" height="60" as="geometry" />
        </mxCell>
        <mxCell id="DqcE8ZYbqzWR5y5hjD0n-13" value="Alterar senha de acesso" style="ellipse;whiteSpace=wrap;html=1;" vertex="1" parent="1">
          <mxGeometry x="460" y="100" width="110" height="60" as="geometry" />
        </mxCell>
        <mxCell id="DqcE8ZYbqzWR5y5hjD0n-14" value="Exibir Mensagem de sucesso" style="ellipse;whiteSpace=wrap;html=1;" vertex="1" parent="1">
          <mxGeometry x="460" y="170" width="110" height="60" as="geometry" />
        </mxCell>
        <mxCell id="DqcE8ZYbqzWR5y5hjD0n-15" value="Estender" style="endArrow=open;endSize=12;dashed=1;html=1;rounded=0;entryX=0.945;entryY=0.283;entryDx=0;entryDy=0;entryPerimeter=0;exitX=0;exitY=0.5;exitDx=0;exitDy=0;" edge="1" parent="1" target="DqcE8ZYbqzWR5y5hjD0n-2" source="DqcE8ZYbqzWR5y5hjD0n-13">
          <mxGeometry width="160" relative="1" as="geometry">
            <mxPoint x="334" y="170" as="sourcePoint" />
            <mxPoint x="494" y="170" as="targetPoint" />
          </mxGeometry>
        </mxCell>
        <mxCell id="DqcE8ZYbqzWR5y5hjD0n-16" value="Estender" style="endArrow=open;endSize=12;dashed=1;html=1;rounded=0;exitX=0;exitY=1;exitDx=0;exitDy=0;entryX=1;entryY=0.5;entryDx=0;entryDy=0;" edge="1" parent="1" source="DqcE8ZYbqzWR5y5hjD0n-14" target="DqcE8ZYbqzWR5y5hjD0n-2">
          <mxGeometry width="160" relative="1" as="geometry">
            <mxPoint x="330" y="290" as="sourcePoint" />
            <mxPoint x="490" y="290" as="targetPoint" />
          </mxGeometry>
        </mxCell>
        <mxCell id="DqcE8ZYbqzWR5y5hjD0n-17" value="Favoritar notícias&amp;nbsp;" style="ellipse;whiteSpace=wrap;html=1;" vertex="1" parent="1">
          <mxGeometry x="220" y="450" width="100" height="60" as="geometry" />
        </mxCell>
        <mxCell id="DqcE8ZYbqzWR5y5hjD0n-19" value="" style="endArrow=classic;html=1;rounded=0;exitX=0.5;exitY=0;exitDx=0;exitDy=0;" edge="1" parent="1" source="DqcE8ZYbqzWR5y5hjD0n-17" target="DqcE8ZYbqzWR5y5hjD0n-6">
          <mxGeometry width="50" height="50" relative="1" as="geometry">
            <mxPoint x="390" y="320" as="sourcePoint" />
            <mxPoint x="440" y="270" as="targetPoint" />
          </mxGeometry>
        </mxCell>
      </root>
    </mxGraphModel>
  </diagram>
  <diagram id="k-zejRurEhOmwslZTd9u" name="Fluxo Alternativo">
    <mxGraphModel dx="1050" dy="557" grid="1" gridSize="10" guides="1" tooltips="1" connect="1" arrows="1" fold="1" page="1" pageScale="1" pageWidth="827" pageHeight="1169" math="0" shadow="0">
      <root>
        <mxCell id="0" />
        <mxCell id="1" parent="0" />
        <mxCell id="ysq9C11ASM4Ok9ArucnG-1" value="" style="whiteSpace=wrap;html=1;aspect=fixed;" vertex="1" parent="1">
          <mxGeometry x="184" y="80" width="460" height="460" as="geometry" />
        </mxCell>
        <mxCell id="ysq9C11ASM4Ok9ArucnG-2" value="Fazer Login" style="ellipse;whiteSpace=wrap;html=1;" vertex="1" parent="1">
          <mxGeometry x="230" y="150" width="110" height="70" as="geometry" />
        </mxCell>
        <mxCell id="ysq9C11ASM4Ok9ArucnG-3" value="Sistema" style="shape=umlActor;verticalLabelPosition=bottom;verticalAlign=top;html=1;outlineConnect=0;" vertex="1" parent="1">
          <mxGeometry x="700" y="250" width="30" height="60" as="geometry" />
        </mxCell>
        <mxCell id="ysq9C11ASM4Ok9ArucnG-4" value="" style="endArrow=none;html=1;rounded=0;exitX=0.5;exitY=0.5;exitDx=0;exitDy=0;exitPerimeter=0;entryX=0;entryY=0.5;entryDx=0;entryDy=0;" edge="1" parent="1" target="ysq9C11ASM4Ok9ArucnG-2">
          <mxGeometry width="50" height="50" relative="1" as="geometry">
            <mxPoint x="105" y="280" as="sourcePoint" />
            <mxPoint x="430" y="280" as="targetPoint" />
            <Array as="points" />
          </mxGeometry>
        </mxCell>
        <mxCell id="ysq9C11ASM4Ok9ArucnG-5" value="Filtros personalizados" style="ellipse;whiteSpace=wrap;html=1;" vertex="1" parent="1">
          <mxGeometry x="230" y="245" width="110" height="70" as="geometry" />
        </mxCell>
        <mxCell id="ysq9C11ASM4Ok9ArucnG-6" value="Notícias" style="ellipse;whiteSpace=wrap;html=1;" vertex="1" parent="1">
          <mxGeometry x="230" y="340" width="110" height="70" as="geometry" />
        </mxCell>
        <mxCell id="ysq9C11ASM4Ok9ArucnG-7" value="" style="endArrow=none;html=1;rounded=0;exitX=0.5;exitY=0.5;exitDx=0;exitDy=0;exitPerimeter=0;entryX=0;entryY=0.5;entryDx=0;entryDy=0;" edge="1" parent="1" target="ysq9C11ASM4Ok9ArucnG-5">
          <mxGeometry width="50" height="50" relative="1" as="geometry">
            <mxPoint x="105" y="280" as="sourcePoint" />
            <mxPoint x="184" y="250" as="targetPoint" />
          </mxGeometry>
        </mxCell>
        <mxCell id="ysq9C11ASM4Ok9ArucnG-8" value="" style="endArrow=none;html=1;rounded=0;exitX=0.5;exitY=0.5;exitDx=0;exitDy=0;exitPerimeter=0;entryX=0;entryY=0.5;entryDx=0;entryDy=0;" edge="1" parent="1" target="ysq9C11ASM4Ok9ArucnG-6">
          <mxGeometry width="50" height="50" relative="1" as="geometry">
            <mxPoint x="105" y="280" as="sourcePoint" />
            <mxPoint x="184" y="330" as="targetPoint" />
          </mxGeometry>
        </mxCell>
        <mxCell id="ysq9C11ASM4Ok9ArucnG-9" value="" style="endArrow=none;html=1;rounded=0;entryX=0.5;entryY=0.5;entryDx=0;entryDy=0;entryPerimeter=0;exitX=1;exitY=0.5;exitDx=0;exitDy=0;" edge="1" parent="1" source="ysq9C11ASM4Ok9ArucnG-6" target="ysq9C11ASM4Ok9ArucnG-3">
          <mxGeometry width="50" height="50" relative="1" as="geometry">
            <mxPoint x="630" y="390" as="sourcePoint" />
            <mxPoint x="680" y="340" as="targetPoint" />
          </mxGeometry>
        </mxCell>
        <mxCell id="ysq9C11ASM4Ok9ArucnG-10" value="Detalhamento de notícias&amp;nbsp;" style="ellipse;whiteSpace=wrap;html=1;" vertex="1" parent="1">
          <mxGeometry x="414" y="240" width="114" height="70" as="geometry" />
        </mxCell>
        <mxCell id="ysq9C11ASM4Ok9ArucnG-11" value="" style="endArrow=open;endSize=12;dashed=1;html=1;rounded=0;exitX=1;exitY=0.5;exitDx=0;exitDy=0;entryX=0;entryY=0.5;entryDx=0;entryDy=0;" edge="1" parent="1" source="ysq9C11ASM4Ok9ArucnG-5" target="ysq9C11ASM4Ok9ArucnG-10">
          <mxGeometry width="160" relative="1" as="geometry">
            <mxPoint x="290" y="290" as="sourcePoint" />
            <mxPoint x="450" y="290" as="targetPoint" />
          </mxGeometry>
        </mxCell>
        <mxCell id="ysq9C11ASM4Ok9ArucnG-12" value="Cliente" style="shape=umlActor;verticalLabelPosition=bottom;verticalAlign=top;html=1;outlineConnect=0;" vertex="1" parent="1">
          <mxGeometry x="60" y="250" width="30" height="60" as="geometry" />
        </mxCell>
        <mxCell id="ysq9C11ASM4Ok9ArucnG-14" value="Verificar senha" style="ellipse;whiteSpace=wrap;html=1;" vertex="1" parent="1">
          <mxGeometry x="460" y="100" width="110" height="60" as="geometry" />
        </mxCell>
        <mxCell id="ysq9C11ASM4Ok9ArucnG-15" value="Exibir Mensagem de senha incorreta" style="ellipse;whiteSpace=wrap;html=1;" vertex="1" parent="1">
          <mxGeometry x="460" y="170" width="110" height="60" as="geometry" />
        </mxCell>
        <mxCell id="ysq9C11ASM4Ok9ArucnG-16" value="Incluir" style="endArrow=open;endSize=12;dashed=1;html=1;rounded=0;entryX=0;entryY=0.5;entryDx=0;entryDy=0;" edge="1" parent="1" target="ysq9C11ASM4Ok9ArucnG-14">
          <mxGeometry width="160" relative="1" as="geometry">
            <mxPoint x="334" y="170" as="sourcePoint" />
            <mxPoint x="494" y="170" as="targetPoint" />
          </mxGeometry>
        </mxCell>
        <mxCell id="ysq9C11ASM4Ok9ArucnG-18" value="Estender" style="endArrow=open;endSize=12;dashed=1;html=1;rounded=0;exitX=0;exitY=1;exitDx=0;exitDy=0;entryX=1;entryY=0.5;entryDx=0;entryDy=0;" edge="1" parent="1" source="ysq9C11ASM4Ok9ArucnG-15" target="ysq9C11ASM4Ok9ArucnG-2">
          <mxGeometry width="160" relative="1" as="geometry">
            <mxPoint x="330" y="290" as="sourcePoint" />
            <mxPoint x="490" y="290" as="targetPoint" />
          </mxGeometry>
        </mxCell>
        <mxCell id="Op4LbKCJ8m4bfnGszeRt-1" value="Favoritar notícia" style="ellipse;whiteSpace=wrap;html=1;" vertex="1" parent="1">
          <mxGeometry x="230" y="460" width="110" height="60" as="geometry" />
        </mxCell>
        <mxCell id="Op4LbKCJ8m4bfnGszeRt-2" value="" style="endArrow=classic;html=1;rounded=0;exitX=0.444;exitY=-0.01;exitDx=0;exitDy=0;exitPerimeter=0;" edge="1" parent="1" source="Op4LbKCJ8m4bfnGszeRt-1" target="ysq9C11ASM4Ok9ArucnG-6">
          <mxGeometry width="50" height="50" relative="1" as="geometry">
            <mxPoint x="390" y="320" as="sourcePoint" />
            <mxPoint x="440" y="270" as="targetPoint" />
          </mxGeometry>
        </mxCell>
      </root>
    </mxGraphModel>
  </diagram>
</mxfile>
